<?xml version="1.0" standalone="no"?>
<!DOCTYPE svg PUBLIC "-//W3C//DTD SVG 20010904//EN"
 "http://www.w3.org/TR/2001/REC-SVG-20010904/DTD/svg10.dtd">
<svg version="1.0" xmlns="http://www.w3.org/2000/svg"
 width="836.000000pt" height="836.000000pt" viewBox="0 0 836.000000 836.000000"
 preserveAspectRatio="xMidYMid meet">
<metadata>
Created by potrace 1.14, written by Peter Selinger 2001-2017
</metadata>
<g transform="translate(0.000000,836.000000) scale(0.100000,-0.100000)"
fill="#000000" stroke="none">
<path d="M4115 8342 c-40 -21 -56 -38 -69 -76 -12 -36 -14 -629 -2 -683 8 -35
54 -80 92 -89 58 -15 132 23 153 79 6 15 10 165 10 362 l-1 336 -37 40 c-23
23 -48 39 -62 40 -13 0 -31 2 -40 4 -8 1 -28 -4 -44 -13z"/>
<path d="M6808 7483 c-17 -7 -135 -118 -262 -246 -247 -247 -262 -268 -242
-335 12 -39 67 -92 99 -93 43 -2 72 3 92 16 48 30 469 462 482 494 42 100 -68
206 -169 164z"/>
<path d="M1491 7452 c-48 -7 -97 -55 -107 -105 -11 -61 10 -89 253 -331 165
-165 246 -239 267 -244 45 -12 95 2 130 37 24 25 31 40 32 78 1 27 -3 57 -8
68 -6 11 -117 126 -248 256 -243 243 -253 250 -319 241z"/>
<path d="M4268 7115 c-1 -1 -70 -5 -153 -9 -82 -3 -161 -8 -175 -10 -14 -3
-52 -7 -85 -10 -128 -13 -286 -42 -360 -67 -406 -138 -748 -366 -1016 -679
-77 -89 -159 -197 -159 -209 0 -5 -4 -11 -8 -13 -10 -4 -92 -135 -92 -147 0
-5 -3 -11 -7 -13 -7 -3 -102 -180 -104 -193 -4 -26 -13 -45 -22 -45 -6 0 -8
-3 -5 -6 3 -3 -4 -31 -17 -63 -26 -63 -73 -223 -80 -274 -3 -17 -7 -43 -10
-57 -25 -147 -25 -635 1 -740 3 -14 8 -45 10 -70 3 -25 7 -56 10 -70 3 -14 7
-38 9 -55 4 -32 11 -66 19 -93 3 -9 8 -28 10 -42 3 -14 10 -45 17 -70 6 -25
12 -49 13 -55 15 -64 79 -262 96 -300 5 -11 18 -44 30 -72 39 -103 174 -365
191 -371 5 -2 9 -8 9 -13 0 -9 37 -67 51 -79 3 -3 12 -15 20 -27 30 -43 128
-150 293 -317 102 -104 177 -189 191 -217 37 -73 43 -156 40 -616 l-3 -432
100 -98 c94 -93 148 -127 164 -102 3 5 11 6 17 2 16 -10 107 -10 107 0 0 4 8
4 18 -1 20 -9 164 -8 180 2 6 3 13 3 16 -2 5 -9 124 -7 133 2 4 3 7 175 7 383
1 404 1 403 -50 403 -32 0 -235 68 -255 86 -8 8 -19 14 -23 14 -4 0 -26 13
-50 29 -116 80 -174 180 -180 307 -3 85 21 211 46 239 7 7 26 31 41 53 26 35
116 99 149 106 7 2 24 8 38 13 35 14 145 16 188 3 51 -15 133 -52 157 -70 63
-48 135 -133 164 -194 43 -93 72 -215 73 -303 0 -20 6 -23 42 -24 93 -2 251 2
255 7 3 3 6 15 7 27 6 95 49 267 67 267 6 0 7 3 4 7 -8 7 33 82 76 136 33 43
106 96 157 115 93 35 259 23 350 -24 99 -52 181 -175 193 -289 2 -17 6 -35 9
-41 4 -5 3 -16 -2 -24 -4 -7 -6 -19 -3 -26 8 -21 -18 -96 -52 -148 -38 -58
-89 -116 -104 -116 -5 0 -11 -3 -13 -7 -3 -8 -84 -63 -92 -63 -2 0 -25 -10
-52 -22 -27 -12 -55 -23 -61 -25 -7 -2 -21 -5 -30 -7 -10 -3 -19 -5 -20 -6 -3
-3 -6 -4 -53 -14 -19 -4 -43 -10 -52 -12 -15 -5 -17 -37 -16 -389 l0 -385 266
0 267 0 97 96 c86 84 97 100 96 128 -1 18 2 37 5 42 3 6 2 16 -3 24 -5 9 -5
19 2 27 7 9 7 13 -1 13 -7 0 -9 5 -5 11 9 14 9 103 0 117 -3 6 -2 13 3 17 6 3
7 16 3 28 -6 19 -7 63 -2 77 6 16 4 107 -2 103 -5 -2 -4 7 2 21 5 14 6 27 1
30 -4 3 -5 28 -1 55 3 28 3 57 -2 65 -5 8 -4 17 1 21 6 3 7 15 2 27 -4 12 -5
38 -1 59 4 20 3 44 -2 52 -5 9 -4 18 1 22 6 3 7 15 2 27 -4 12 -4 42 1 67 16
86 55 147 166 259 92 93 162 168 270 291 154 175 300 436 416 746 24 65 57
168 57 180 0 2 6 24 15 47 8 23 17 54 19 70 3 15 12 56 19 90 16 67 26 123 32
176 11 88 13 113 20 192 10 130 11 353 2 372 -5 10 -4 19 2 23 6 4 8 10 5 15
-3 5 -8 39 -10 77 -3 37 -8 84 -10 103 -3 20 -8 60 -11 90 -3 30 -8 66 -10 80
-2 14 -6 39 -8 55 -11 80 -18 104 -59 210 -29 73 -139 295 -159 320 -4 5 -32
46 -61 90 -50 78 -101 148 -123 171 -5 6 -26 31 -45 54 -133 164 -397 385
-594 497 -40 23 -231 117 -272 134 -13 5 -33 13 -45 19 -71 30 -292 93 -373
105 -11 2 -20 4 -20 5 0 4 -61 10 -170 15 -66 3 -125 8 -132 10 -6 2 -13 2
-15 0z"/>
<path d="M593 4922 c-18 -2 -33 -7 -33 -11 0 -5 -9 -11 -20 -14 -24 -6 -60
-81 -54 -113 8 -42 21 -69 49 -94 l27 -25 341 -1 c188 -1 351 2 363 6 75 29
107 124 62 190 -42 62 -50 63 -393 64 -171 1 -325 0 -342 -2z"/>
<path d="M7245 4922 c-2 -2 -38 -4 -81 -5 -51 -2 -79 -6 -82 -15 -2 -6 -10
-12 -18 -12 -9 0 -12 -4 -9 -10 3 -5 2 -10 -3 -10 -13 0 -32 -47 -32 -81 0
-54 46 -115 94 -125 29 -6 646 -6 673 0 115 24 130 193 22 241 -21 10 -42 15
-45 12 -3 -3 -16 -2 -28 2 -11 4 -34 4 -51 1 -16 -3 -40 -3 -52 1 -13 5 -25 4
-28 -2 -4 -5 -11 -7 -16 -3 -10 6 -69 7 -139 1 -19 -1 -45 1 -57 5 -12 4 -25
3 -28 -3 -4 -5 -11 -7 -16 -3 -11 6 -98 11 -104 6z"/>
<path d="M3554 2866 c-88 -49 -119 -120 -71 -163 23 -21 83 -55 104 -59 6 -1
27 -7 45 -13 18 -6 45 -12 61 -15 27 -5 27 -4 23 37 -8 73 -18 111 -44 159
-31 59 -74 79 -118 54z"/>
<path d="M4718 2857 c-22 -21 -78 -112 -68 -112 2 0 0 -16 -3 -35 -19 -104
-19 -100 5 -96 13 3 25 5 28 6 3 2 8 2 12 1 3 0 32 8 63 19 106 36 146 74 137
128 -4 24 -76 102 -95 102 -7 0 -21 3 -32 6 -14 3 -30 -3 -47 -19z"/>
<path d="M1891 2616 c-47 -16 -487 -458 -503 -505 -7 -20 -11 -40 -9 -46 4
-11 9 -37 10 -47 2 -16 64 -68 82 -68 10 0 19 -4 19 -10 0 -6 9 -6 25 0 14 5
25 7 25 4 0 -36 519 476 521 514 1 12 2 32 3 45 1 12 -5 35 -14 51 -32 60 -95
84 -159 62z"/>
<path d="M6373 2563 c-18 -9 -33 -23 -33 -30 0 -7 -4 -13 -9 -13 -15 0 -28
-73 -19 -107 6 -24 72 -96 238 -263 211 -211 261 -254 298 -253 6 0 23 1 37 2
13 0 40 15 59 32 40 34 55 94 37 143 -9 23 -413 437 -473 484 -26 21 -98 23
-135 5z"/>
<path d="M4026 2271 c-2 -6 0 -704 3 -728 1 -8 43 -11 148 -10 l147 2 0 370 0
370 -148 1 c-81 0 -148 -2 -150 -5z"/>
<path d="M3289 1166 c0 -12 -1 -77 -2 -146 l-1 -125 320 -5 c276 -4 323 -7
350 -22 30 -16 61 -65 69 -109 5 -25 -23 -99 -44 -117 -60 -49 -46 -47 -373
-48 -169 0 -311 -3 -315 -7 -3 -4 -7 -57 -7 -119 l-1 -112 177 -178 177 -178
537 0 537 0 143 142 c79 79 144 145 144 148 0 3 -125 5 -277 5 -271 -1 -279 0
-324 22 -51 26 -72 60 -75 122 -2 64 36 129 87 147 13 5 164 9 334 9 l310 1 0
294 0 295 -882 1 -883 1 -1 -21z"/>
</g>
</svg>
